<svg xmlns="http://www.w3.org/2000/svg" fill="none" width="36.667" height="35.759"><path d="M5 3.576c-.442 0-.866.188-1.179.524-.312.335-.488.79-.488 1.264v25.031c0 .474.176.93.488 1.265.313.335.737.523 1.179.523h26.667a1.61 1.61 0 0 0 1.178-.523c.313-.336.488-.79.488-1.265V10.728c0-.474-.175-.93-.488-1.265a1.611 1.611 0 0 0-1.178-.523h-15a1.64 1.64 0 0 1-1.387-.796l-2.84-4.568H5ZM1.464 1.57C2.402.565 3.674 0 5 0h8.333a1.64 1.64 0 0 1 1.387.796l2.839 4.568h14.108c1.326 0 2.597.565 3.535 1.57.938 1.007 1.465 2.371 1.465 3.794v19.667c0 1.423-.527 2.787-1.465 3.793-.938 1.006-2.21 1.571-3.535 1.571H5c-1.326 0-2.598-.565-3.536-1.57C.527 33.181 0 31.817 0 30.394V5.364C0 3.94.527 2.577 1.464 1.57Zm10.203 19.885c0-.988.746-1.788 1.666-1.788h10c.92 0 1.667.8 1.667 1.788 0 .987-.746 1.788-1.667 1.788h-10c-.92 0-1.666-.801-1.666-1.788Z" fill-rule="evenodd" fill="#000"/></svg>