<svg xmlns="http://www.w3.org/2000/svg" fill="none" width="123.442" height="109.53"><path d="M40.566 28.17 27.043 55.29h58.764l-13.6-27.12H40.566Z" fill="#FBE945"/><path d="M13.523 82.41h85.881L85.807 55.29H27.043l-13.52 27.12Z" fill="#FBB11B"/><path d="M0 109.53h113.005l-13.6-27.12H13.522L0 109.53Z" fill="#D38D1C"/><path d="m104.623 73.738 5.817 11.782 13.002 1.889-9.41 9.172 2.223 12.949-11.632-6.114-11.628 6.114 2.219-12.95-9.406-9.171 13.001-1.889 5.814-11.782ZM48.917 0l8.419 5.212 9.067-3.978-2.361 9.617 6.585 7.394-9.875.728-4.996 8.548-3.744-9.165-9.674-2.111 7.56-6.394L48.919 0Z" fill="#FBE945"/></svg>