<?xml version="1.0" standalone="no"?><!DOCTYPE svg PUBLIC "-//W3C//DTD SVG 1.1//EN" "http://www.w3.org/Graphics/SVG/1.1/DTD/svg11.dtd"><svg t="1709735001320" class="icon" viewBox="0 0 1024 1024" version="1.1" xmlns="http://www.w3.org/2000/svg" p-id="2357" width="28" height="28" xmlns:xlink="http://www.w3.org/1999/xlink"><path d="M602.112 425.984l69.632 0 0-145.408c0-83.968-67.584-153.6-153.6-153.6l-45.056 0c-83.968 0-153.6 67.584-153.6 153.6l0 61.44 65.536 0 0-59.392c0 0 4.096-81.92 81.92-81.92 71.68 0 57.344 0 57.344 0s77.824-4.096 77.824 75.776C602.112 364.544 602.112 425.984 602.112 425.984z" p-id="2358" fill="#bfbfbf"></path><path d="M253.952 471.04l0 192.512c0 129.024 104.448 235.52 235.52 235.52l16.384 0c129.024 0 235.52-104.448 235.52-235.52L741.376 471.04 253.952 471.04zM524.288 655.36l0 65.536c0 16.384-12.288 28.672-28.672 28.672s-28.672-12.288-28.672-28.672L466.944 655.36c-16.384-10.24-28.672-28.672-28.672-49.152 0-32.768 26.624-57.344 57.344-57.344 32.768 0 57.344 26.624 57.344 57.344C555.008 626.688 542.72 645.12 524.288 655.36z" p-id="2359" fill="#bfbfbf"></path></svg>